# xmcd CD database file
#
# Track frame offsets:
#	150
#	7167
#	22763
#	28135
#	38182
#	59729
#	69271
#	88356
#	109956
#	123566
#	136798
#	164213
#	181827
#	214395
#	229617
#
# Disc length: 3308 seconds
#
# Revision: 0
# Processed by: cddbd v1.5.2PL0 Copyright (c) Steve Scherf et al.
# Submitted via: CDex 1.51
#
DISCID=da0cea0f
DTITLE=Goldmund - Corduroy Road
DYEAR=2005
DGENRE=New Age
TTITLE0=Ba
TTITLE1=Door of Our Home
TTITLE2=Marching Through Georgia
TTITLE3=Downward to Darkness on Extended Wings
TTITLE4=My Neighbourhood
TTITLE5=One Acre
TTITLE6=25 Thousands Miles
TTITLE7=Methusela Tree
TTITLE8=Larrows of the Field
TTITLE9=Provenance
TTITLE10=Parhelia
TTITLE11=Yamase
TTITLE12=Anomolie Loop (1960-1969)
TTITLE13=Title Divine (bonus track)
TTITLE14=Dead Letter (bonus track)
EXTD=YEAR: 2005
EXTT0=
EXTT1=
EXTT2=
EXTT3=
EXTT4=
EXTT5=
EXTT6=
EXTT7=
EXTT8=
EXTT9=
EXTT10=
EXTT11=
EXTT12=
EXTT13=
EXTT14=
PLAYORDER=
